<?xml version="1.0" encoding="UTF-8" standalone="no"?>
<svg
   height="24"
   width="30"
   viewBox="0 0 640 512"
   version="1.1"
   id="svg44"
   sodipodi:docname="sad-robot.svg"
   inkscape:version="1.2.2 (b0a8486541, 2022-12-01)"
   xmlns:inkscape="http://www.inkscape.org/namespaces/inkscape"
   xmlns:sodipodi="http://sodipodi.sourceforge.net/DTD/sodipodi-0.dtd"
   xmlns="http://www.w3.org/2000/svg"
   xmlns:svg="http://www.w3.org/2000/svg">
  <defs
     id="defs48" />
  <sodipodi:namedview
     id="namedview46"
     pagecolor="#ffffff"
     bordercolor="#000000"
     borderopacity="0.25"
     inkscape:showpageshadow="2"
     inkscape:pageopacity="0.0"
     inkscape:pagecheckerboard="0"
     inkscape:deskcolor="#d1d1d1"
     showgrid="false"
     inkscape:zoom="25.328516"
     inkscape:cx="16.029364"
     inkscape:cy="12.57476"
     inkscape:window-width="1920"
     inkscape:window-height="1008"
     inkscape:window-x="0"
     inkscape:window-y="0"
     inkscape:window-maximized="1"
     inkscape:current-layer="svg44" />
  <!--!Font Awesome Free 6.7.2 by @fontawesome - https://fontawesome.com License - https://fontawesome.com/license/free Copyright 2025 Fonticons, Inc.-->
  <path
     d="m 471.50873,96.349134 c 39.8,0 71.76791,32.200676 72,71.999996 l 1.48018,253.82241 c 0.2321,39.79932 -32.2,72 -72,72 h -304 c -39.8,0 -71.767902,-32.20068 -71.999995,-72 L 95.50873,168.34913 c -0.232093,-39.79932 32.2,-71.999996 72,-71.999996 119.6364,-0.12041 237.00123,-0.0062 304,0 z M 274.58511,310.50637 c -17.91373,22.24439 -1.58751,38.74815 19.57642,26.41359 16.99639,-9.90566 31.54207,-10.82959 48.23926,0 18.28538,11.85968 45.11829,-1.15662 24.11964,-26.41359 -33.99101,-28.42754 -67.30298,-21.34247 -91.93532,0 z m -11.07638,-54.15724 c 0,-22.0914 -17.90861,-39.99998 -40,-39.99998 -22.09139,0 -40,17.90858 -40,39.99998 0,22.0914 17.90861,39.99998 40,39.99998 22.09139,0 40,-17.90858 40,-39.99998 z m 152,40 c 22.0914,0 39.99998,-17.90861 39.99998,-40 0,-22.09139 -17.90858,-40 -39.99998,-40 -22.0914,0 -39.99998,17.90861 -39.99998,40 0,22.09139 17.90858,40 39.99998,40 z m -368,-72 h 16 v 192 h -16 c -26.5,0 -48.00000057,-21.5 -48.00000057,-48 v -96 c 0,-26.5 21.50000057,-48 48.00000057,-48 z m 544,0 c 26.5,0 48,21.5 48,48 v 96 c 0,26.5 -21.5,48 -48,48 h -16 v -192 z"
     id="path42"
     sodipodi:nodetypes="csssssscccssccsssssssssssccssssssssccs"
     style="fill:#666666" />
  <text
     xml:space="preserve"
     style="font-size:131.077px;line-height:6.5;fill:#666666;stroke-width:10.9232"
     x="222.69177"
     y="98.172485"
     id="text1049"
     transform="scale(1.205952,0.82922041)"><tspan
       sodipodi:role="line"
       id="tspan1047"
       style="font-style:normal;font-variant:normal;font-weight:500;font-stretch:normal;font-family:'DM Mono';-inkscape-font-specification:'DM Mono Medium';stroke-width:10.9232;fill:#666666"
       x="222.69177"
       y="98.172485">Q</tspan></text>
</svg>
